<svg width="121" height="31" viewBox="0 0 121 31" fill="none" xmlns="http://www.w3.org/2000/svg">
<path d="M0.338375 23V0.151999H17.4904V23H14.6424V2.68H3.21838V23H0.338375ZM31.5206 5.528C33.6326 5.528 35.3286 6.264 36.6086 7.736C37.91 9.208 38.5606 11.4267 38.5606 14.392C38.5606 16.3333 38.262 17.976 37.6646 19.32C37.0886 20.6427 36.2673 21.6453 35.2006 22.328C34.1553 22.9893 32.918 23.32 31.4886 23.32C30.614 23.32 29.8353 23.2027 29.1526 22.968C28.47 22.7333 27.8833 22.4347 27.3926 22.072C26.9233 21.688 26.518 21.272 26.1766 20.824H25.9846C26.0273 21.1867 26.07 21.6453 26.1126 22.2C26.1553 22.7547 26.1766 23.2347 26.1766 23.64V30.68H23.3606V5.848H25.6646L26.0486 8.184H26.1766C26.518 7.69333 26.9233 7.24533 27.3926 6.84C27.8833 6.43467 28.4593 6.11467 29.1206 5.88C29.8033 5.64533 30.6033 5.528 31.5206 5.528ZM31.0086 7.896C29.8566 7.896 28.9286 8.12 28.2246 8.568C27.5206 8.99467 27.0086 9.64533 26.6886 10.52C26.3686 11.3947 26.198 12.504 26.1766 13.848V14.392C26.1766 15.8 26.326 16.9947 26.6246 17.976C26.9233 18.9573 27.4246 19.704 28.1286 20.216C28.854 20.728 29.8353 20.984 31.0726 20.984C32.118 20.984 32.9713 20.696 33.6326 20.12C34.3153 19.544 34.8166 18.7653 35.1366 17.784C35.478 16.7813 35.6486 15.64 35.6486 14.36C35.6486 12.3973 35.2646 10.8293 34.4966 9.656C33.75 8.48267 32.5873 7.896 31.0086 7.896ZM45.7041 16.312C45.7041 16.504 45.6935 16.7813 45.6721 17.144C45.6721 17.4853 45.6615 17.8587 45.6401 18.264C45.6188 18.648 45.5975 19.0213 45.5761 19.384C45.5548 19.7253 45.5335 20.0027 45.5121 20.216L54.6961 5.848H58.1521V23H55.5281V12.888C55.5281 12.5467 55.5281 12.0987 55.5281 11.544C55.5495 10.9893 55.5708 10.4453 55.5921 9.912C55.6135 9.35733 55.6348 8.94133 55.6561 8.664L46.5361 23H43.0481V5.848H45.7041V16.312ZM77.4026 10.168C77.4026 11.2347 77.0826 12.0667 76.4426 12.664C75.8026 13.2613 74.9813 13.6667 73.9786 13.88V14.008C75.0453 14.1573 75.9733 14.5413 76.7626 15.16C77.552 15.7573 77.9466 16.696 77.9466 17.976C77.9466 18.7013 77.808 19.3733 77.5306 19.992C77.2746 20.6107 76.8693 21.144 76.3146 21.592C75.76 22.04 75.0453 22.392 74.1706 22.648C73.296 22.8827 72.24 23 71.0026 23H63.6106V5.848H70.9706C72.1866 5.848 73.2746 5.98667 74.2346 6.264C75.216 6.52 75.984 6.968 76.5386 7.608C77.1146 8.22667 77.4026 9.08 77.4026 10.168ZM75.0346 17.976C75.0346 16.9947 74.6613 16.2907 73.9146 15.864C73.168 15.4373 72.0693 15.224 70.6186 15.224H66.4266V20.728H70.6826C72.0906 20.728 73.168 20.5253 73.9146 20.12C74.6613 19.6933 75.0346 18.9787 75.0346 17.976ZM74.5546 10.52C74.5546 9.70933 74.256 9.12267 73.6586 8.76C73.0826 8.376 72.1333 8.184 70.8106 8.184H66.4266V12.888H70.2986C71.6853 12.888 72.7413 12.696 73.4666 12.312C74.192 11.928 74.5546 11.3307 74.5546 10.52ZM88.6721 5.528C90.1441 5.528 91.4028 5.848 92.4481 6.488C93.5148 7.128 94.3255 8.03467 94.8801 9.208C95.4561 10.36 95.7441 11.7147 95.7441 13.272V14.968H84.0001C84.0428 16.9093 84.5335 18.392 85.4721 19.416C86.4321 20.4187 87.7655 20.92 89.4721 20.92C90.5601 20.92 91.5201 20.824 92.3521 20.632C93.2055 20.4187 94.0801 20.12 94.9761 19.736V22.2C94.1015 22.584 93.2375 22.8613 92.3841 23.032C91.5308 23.224 90.5175 23.32 89.3441 23.32C87.7228 23.32 86.2828 22.9893 85.0241 22.328C83.7868 21.6667 82.8161 20.6853 82.1121 19.384C81.4295 18.0613 81.0881 16.4507 81.0881 14.552C81.0881 12.6747 81.3975 11.064 82.0161 9.72C82.6561 8.376 83.5415 7.34133 84.6721 6.616C85.8241 5.89067 87.1575 5.528 88.6721 5.528ZM88.6401 7.832C87.2961 7.832 86.2295 8.26933 85.4401 9.144C84.6721 9.99733 84.2135 11.192 84.0641 12.728H92.8001C92.8001 11.7467 92.6508 10.8933 92.3521 10.168C92.0535 9.44267 91.5948 8.87733 90.9761 8.472C90.3788 8.04533 89.6001 7.832 88.6401 7.832ZM111.951 8.216H106.351V23H103.567V8.216H98.0306V5.848H111.951V8.216ZM115.828 18.6094H115.094C115.438 17.2031 115.839 15.099 116.297 12.2969C116.766 9.49479 117.089 7.73958 117.266 7.03125C117.453 6.32292 117.698 5.82812 118 5.54688C118.302 5.25521 118.646 5.10938 119.031 5.10938C119.427 5.10938 119.724 5.25521 119.922 5.54688C120.12 5.83854 120.219 6.18229 120.219 6.57812C120.219 7.42188 119.531 9.42708 118.156 12.5938C117.333 14.5417 116.557 16.5469 115.828 18.6094ZM114.578 20.1562C114.88 20.1562 115.151 20.2292 115.391 20.375C115.63 20.5104 115.818 20.6979 115.953 20.9375C116.099 21.1771 116.172 21.4479 116.172 21.75C116.172 22.1354 116.031 22.5 115.75 22.8438C115.479 23.1875 115.089 23.3594 114.578 23.3594C114.13 23.3594 113.75 23.2031 113.438 22.8906C113.135 22.5781 112.984 22.1979 112.984 21.75C112.984 21.4479 113.052 21.1771 113.188 20.9375C113.333 20.6979 113.526 20.5104 113.766 20.375C114.005 20.2292 114.276 20.1562 114.578 20.1562Z" fill="#2B2B2B"/>
</svg>
