<svg width="18" height="18" viewBox="0 0 18 18" fill="none" xmlns="http://www.w3.org/2000/svg">
<rect width="18" height="18" rx="6" fill="#F7F7F9"/>
<path fill-rule="evenodd" clip-rule="evenodd" d="M8.85225 5.28003C8.89894 5.26001 8.9492 5.24969 9 5.24969C9.0508 5.24969 9.10106 5.26001 9.14775 5.28003L11.5455 6.3079C11.6804 6.36575 11.7954 6.46193 11.8762 6.58452C11.957 6.70711 12.0001 6.85071 12 6.99753V9.57003C12 10.0327 11.8776 10.4872 11.6453 10.8874C11.4131 11.2876 11.0791 11.6193 10.6774 11.8489L9.186 12.7009C9.12935 12.7333 9.06524 12.7503 9 12.7503C8.93476 12.7503 8.87065 12.7333 8.814 12.7009L7.32263 11.8489C6.92076 11.6193 6.58676 11.2875 6.35448 10.8871C6.12221 10.4868 5.99991 10.0321 6 9.56928V6.99753C6.00002 6.85078 6.04309 6.70725 6.12387 6.58474C6.20466 6.46222 6.31962 6.3661 6.4545 6.30828L8.85225 5.28003ZM10.3901 8.51515C10.4584 8.44443 10.4962 8.3497 10.4954 8.25138C10.4945 8.15305 10.4551 8.059 10.3856 7.98947C10.316 7.91994 10.222 7.88051 10.1237 7.87965C10.0253 7.8788 9.9306 7.91659 9.85988 7.9849L8.625 9.21978L8.14012 8.7349C8.0694 8.66659 7.97467 8.6288 7.87635 8.62965C7.77803 8.63051 7.68397 8.66994 7.61444 8.73947C7.54491 8.809 7.50548 8.90305 7.50462 9.00138C7.50377 9.0997 7.54157 9.19443 7.60988 9.26515L8.35988 10.0152C8.4302 10.0855 8.52556 10.1249 8.625 10.1249C8.72444 10.1249 8.8198 10.0855 8.89012 10.0152L10.3901 8.51515Z" fill="#2B2B2B"/>
</svg>
